<svg xmlns="http://www.w3.org/2000/svg" xmlns:xlink="http://www.w3.org/1999/xlink" xmlns:svgjs="http://svgjs.dev/svgjs" id="glipy_copy_3" data-name="glipy copy 3" viewBox="0 0 64 64" width="300" height="300"><g width="100%" height="100%" transform="matrix(1,0,0,1,0,0)"><path d="M32,2A30,30,0,1,0,62,32,30.03661,30.03661,0,0,0,32,2ZM19.15,45.89a.71721.71721,0,0,1-.8.65l-2.87-.41a.71147.71147,0,0,1,.19-1.41l1.02.14C5.78,32.04,15.15,11.93,32,12.01A19.871,19.871,0,0,1,42.99,15.3a.719.719,0,0,1,.21.99.71142.71142,0,0,1-.99.2c-12.13-8.14-28.9.9-28.78,15.51a18.44352,18.44352,0,0,0,4.44,12.05l.08-.9a.71809.71809,0,0,1,1.43.13ZM29.86,32V29.86h4.28V32a.72337.72337,0,0,0,.72.72.71492.71492,0,0,0,.71-.72V29.86h4.29a1.43613,1.43613,0,0,1,1.43,1.43v7.14a1.43613,1.43613,0,0,1-1.43,1.43H24.15A1.42974,1.42974,0,0,1,22.72,38.43V31.29A1.42973,1.42973,0,0,1,24.15,29.86h4.28V32A.71507.71507,0,0,0,29.86,32Zm10-3.57H24.15A1.42973,1.42973,0,0,1,22.72,27V19.86A1.43615,1.43615,0,0,1,24.15,18.43h4.28v2.15a.71522.71522,0,0,0,1.43,0V18.43h4.28v2.15a.72137.72137,0,0,0,.72.71.71276.71276,0,0,0,.71-.71V18.43h4.29a1.44265,1.44265,0,0,1,1.43,1.43V27A1.43613,1.43613,0,0,1,39.86,28.43ZM21.01,48.7a.69976.69976,0,0,1-.2-.98.712.712,0,0,1,.99-.21,18.59317,18.59317,0,0,0,17.24,1.68,7.09779,7.09779,0,0,0,.81,1.21A20.04462,20.04462,0,0,1,21.01,48.7Zm24.63,3.01a6.06767,6.06767,0,1,1,4.12-10.52A6.07934,6.07934,0,0,1,45.64,51.71ZM50.4,39.85a6.55536,6.55536,0,0,0-1.21-.81,18.60538,18.60538,0,0,0-3.13-19.16l-.12.95a.71075.71075,0,0,1-1.41-.18l.33-2.73a.71123.71123,0,0,1,.8-.62l2.73.33a.71525.71525,0,0,1-.17,1.42l-1.11-.14A19.81868,19.81868,0,0,1,52,32,20.03406,20.03406,0,0,1,50.4,39.85Z" fill="#ffffff" fill-opacity="1" data-original-color="#000000ff" stroke="none" stroke-opacity="1"></path><path d="M47.7,43.77l-2.97,2.29-1.19-.82a.71582.71582,0,0,0-.81,1.18c.32.17,1.7,1.31,2.02,1.23a.79113.79113,0,0,0,.44-.13995l3.38-2.6A.71722.71722,0,0,0,47.7,43.77Z" fill="#ffffff" fill-opacity="1" data-original-color="#000000ff" stroke="none" stroke-opacity="1"></path></g></svg>