<svg xmlns="http://www.w3.org/2000/svg" xmlns:xlink="http://www.w3.org/1999/xlink" xmlns:svgjs="http://svgjs.dev/svgjs" id="Capa_1" height="300" viewBox="0 0 511.88 511.88" width="300"><g width="100%" height="100%" transform="matrix(1,0,0,1,0,0)"><g><path d="m75.23 90.23h30.24v30.24h-30.24z" fill="#ffffff" fill-opacity="1" data-original-color="#000000ff" stroke="none" stroke-opacity="1"></path><path d="m75.23 210.7h30.24v30.24h-30.24z" fill="#ffffff" fill-opacity="1" data-original-color="#000000ff" stroke="none" stroke-opacity="1"></path><path d="m180.7 15c0-8.28-6.72-15-15-15h-150.7c-8.28 0-15 6.72-15 15v286.18h180.7zm-45.23 240.94c0 8.28-6.72 15-15 15h-60.24c-8.28 0-15-6.72-15-15v-60.24c0-8.28 6.72-15 15-15h60.24c8.28 0 15 6.72 15 15zm0-120.47c0 8.28-6.72 15-15 15h-60.24c-8.28 0-15-6.72-15-15v-60.24c0-8.28 6.72-15 15-15h60.24c8.28 0 15 6.72 15 15z" fill="#ffffff" fill-opacity="1" data-original-color="#000000ff" stroke="none" stroke-opacity="1"></path><path d="m331.402 148.552h30.236v30.236h-30.236z" transform="matrix(.707 -.707 .707 .707 -14.239 292.963)" fill="#ffffff" fill-opacity="1" data-original-color="#000000ff" stroke="none" stroke-opacity="1"></path><path d="m260.89 226.81-21.38 21.38 21.38 21.38 21.38-21.38zm213.8-83.96-109.96-109.96c-5.86-4.24-14.09-3.72-19.37 1.56l-134.66 134.66v65.46l39.58-39.58c5.86-5.86 15.35-5.86 21.21 0l42.59 42.59c5.86 5.86 5.86 15.36 0 21.22l-42.38 42.38h62.47l138.96-138.95c5.28-5.28 5.8-13.52 1.56-19.38zm-74.97 31.43-42.59 42.59c-5.85 5.85-15.34 5.88-21.22 0l-42.59-42.59c-5.86-5.86-5.86-15.36 0-21.21l42.59-42.6c5.86-5.85 15.36-5.85 21.22 0l42.59 42.6c5.86 5.85 5.86 15.35 0 21.21zm-138.83 52.53-21.38 21.38 21.38 21.38 21.38-21.38zm-50.19 35v39.37h39.37z" fill="#ffffff" fill-opacity="1" data-original-color="#000000ff" stroke="none" stroke-opacity="1"></path><path d="m105.35 406.41c-8.33 0-15.12 6.78-15.12 15.12s6.79 15.12 15.12 15.12c8.34 0 15.12-6.78 15.12-15.12s-6.78-15.12-15.12-15.12z" fill="#ffffff" fill-opacity="1" data-original-color="#000000ff" stroke="none" stroke-opacity="1"></path><path d="m496.88 331.18h-496.88v165.7c0 8.28 6.72 15 15 15h481.88c8.28 0 15-6.72 15-15v-150.7c0-8.28-6.72-15-15-15zm-391.53 135.47c-24.88 0-45.12-20.24-45.12-45.12s20.24-45.12 45.12-45.12 45.12 20.24 45.12 45.12-20.24 45.12-45.12 45.12zm225.83-15c0 8.28-6.72 15-15 15h-60.24c-8.28 0-15-6.72-15-15v-60.24c0-8.28 6.72-15 15-15h60.24c8.28 0 15 6.72 15 15zm120.47 0c0 8.28-6.72 15-15 15h-60.24c-8.28 0-15-6.72-15-15v-60.24c0-8.28 6.72-15 15-15h60.24c8.28 0 15 6.72 15 15z" fill="#ffffff" fill-opacity="1" data-original-color="#000000ff" stroke="none" stroke-opacity="1"></path><path d="m391.41 406.41h30.24v30.24h-30.24z" fill="#ffffff" fill-opacity="1" data-original-color="#000000ff" stroke="none" stroke-opacity="1"></path><path d="m270.94 406.41h30.24v30.24h-30.24z" fill="#ffffff" fill-opacity="1" data-original-color="#000000ff" stroke="none" stroke-opacity="1"></path></g></g></svg>