<svg xmlns="http://www.w3.org/2000/svg" xmlns:xlink="http://www.w3.org/1999/xlink" xmlns:svgjs="http://svgjs.dev/svgjs" id="Layer_1" viewBox="0 0 64 64" data-name="Layer 1" width="300" height="300"><g width="100%" height="100%" transform="matrix(1,0,0,1,0,0)"><path d="m35.278 12.558-7 2.9v33.084l7 2.9z" fill="#ffffff" fill-opacity="1" data-original-color="#000000ff" stroke="none" stroke-opacity="1"></path><path d="m5.726 51.442 7.001-2.9v-33.084l-7.001-2.9z" fill="#ffffff" fill-opacity="1" data-original-color="#000000ff" stroke="none" stroke-opacity="1"></path><path d="m16.931 13-2.204 2.204v33.592l2.204 2.204h7.143l2.204-2.204v-33.592l-2.204-2.204z" fill="#ffffff" fill-opacity="1" data-original-color="#000000ff" stroke="none" stroke-opacity="1"></path><path d="m34.513 10.71-5.945-5.945-2.9 7.001 1.845 1.844z" fill="#ffffff" fill-opacity="1" data-original-color="#000000ff" stroke="none" stroke-opacity="1"></path><path d="m17.185 11h6.635l2.9-7h-12.435z" fill="#ffffff" fill-opacity="1" data-original-color="#000000ff" stroke="none" stroke-opacity="1"></path><path d="m34.513 53.29-7-2.9-1.845 1.844 2.9 7.001z" fill="#ffffff" fill-opacity="1" data-original-color="#000000ff" stroke="none" stroke-opacity="1"></path><path d="m6.491 10.71 7.001 2.9 1.845-1.844-2.9-7.001z" fill="#ffffff" fill-opacity="1" data-original-color="#000000ff" stroke="none" stroke-opacity="1"></path><path d="m23.82 53h-6.635l-2.9 7h12.435z" fill="#ffffff" fill-opacity="1" data-original-color="#000000ff" stroke="none" stroke-opacity="1"></path><path d="m15.337 52.234-1.845-1.844-7.001 2.9 5.946 5.945z" fill="#ffffff" fill-opacity="1" data-original-color="#000000ff" stroke="none" stroke-opacity="1"></path><path d="m58.274 42.853v-23.318h-17.543v23.318zm-8.4-19.173h5.376a1 1 0 0 1 0 2h-5.376a1 1 0 0 1 0-2zm0 6.893h5.376a1 1 0 0 1 0 2h-5.376a1 1 0 0 1 0-2zm0 6.894h5.376a1 1 0 0 1 0 2h-5.376a1 1 0 0 1 0-2zm-6.826-13.874a1 1 0 0 1 1.414 0l.546.547 1.8-1.8a1 1 0 0 1 1.414 1.414l-2.507 2.507a1 1 0 0 1 -1.414 0l-1.253-1.254a1 1 0 0 1 0-1.414zm0 6.893a1 1 0 0 1 1.414 0l.546.547 1.8-1.8a1 1 0 1 1 1.414 1.414l-2.507 2.507a1 1 0 0 1 -1.414 0l-1.253-1.254a1 1 0 0 1 0-1.414zm0 6.9a1 1 0 0 1 1.414 0l.546.546 1.8-1.8a1 1 0 0 1 1.414 1.414l-2.507 2.507a1 1 0 0 1 -1.414 0l-1.253-1.253a1 1 0 0 1 0-1.419z" fill="#ffffff" fill-opacity="1" data-original-color="#000000ff" stroke="none" stroke-opacity="1"></path></g></svg>