<svg xmlns="http://www.w3.org/2000/svg" xmlns:xlink="http://www.w3.org/1999/xlink" fill="#ffffff" height="800px" width="800px" id="Layer_1" viewBox="0 0 512 512" xml:space="preserve" stroke="#ffffff"><g id="SVGRepo_bgCarrier" stroke-width="0"></g><g id="SVGRepo_tracerCarrier" stroke-linecap="round" stroke-linejoin="round"></g><g id="SVGRepo_iconCarrier"> <g> <g> <path d="M170.891,143.674c-6.828-2.448-13.929-4.412-21.232-5.828c-38.027-7.371-76.511,0.952-102.715,21.772 c16.526,29.107,49.111,51.209,87.138,58.58c19.873,3.852,39.866,3.41,58.17-0.854l33.562-16.701 C203.582,187.896,184.411,167.956,170.891,143.674z"></path> </g> </g> <g> <g> <path d="M258.014,80.544C246.711,43.495,221.327,13.398,190.655,0c-17.971,28.238-22.229,67.378-10.928,104.427 c9.459,31.005,28.782,57.134,52.811,72.689c-4.855-15.892-11.122-36.199-15.956-51.786c-1.933-6.231,1.553-12.849,7.785-14.781 c6.235-1.931,12.85,1.553,14.783,7.784c1.389,4.479,9.463,30.536,15.852,51.45C266.042,143.562,267.406,111.333,258.014,80.544z"></path> </g> </g> <g> <g> <path d="M174.46,311.181V512h109.86v-90.021c0-6.524,4.934-11.57,11.457-11.57h48.012c6.523,0,11.408,5.045,11.408,11.57V512 h109.86V311.181H174.46z"></path> </g> </g> <g> <g> <polygon points="319.758,180.271 174.46,252.787 174.46,287.555 465.057,287.555 465.057,252.787 "></polygon> </g> </g> </g></svg>