<svg xmlns="http://www.w3.org/2000/svg" xmlns:xlink="http://www.w3.org/1999/xlink" xmlns:svgjs="http://svgjs.dev/svgjs" id="Layer_1" height="300" viewBox="0 0 60 60" width="300"><g width="100%" height="100%" transform="matrix(1,0,0,1,0,0)"><g><path d="m31.41 49.81c0 2.86-2.33 5.19-5.2 5.19-2.86 0-5.19-2.33-5.19-5.19 0-2.87 2.33-5.2 5.19-5.2 2.87 0 5.2 2.33 5.2 5.2z" fill="#ffffff" fill-opacity="1" data-original-color="#000000ff" stroke="none" stroke-opacity="1"></path><path d="m47.47 49.81c0 2.86-2.33 5.19-5.19 5.19-2.87 0-5.2-2.33-5.2-5.19 0-2.87 2.33-5.2 5.2-5.2 2.86 0 5.19 2.33 5.19 5.2z" fill="#ffffff" fill-opacity="1" data-original-color="#000000ff" stroke="none" stroke-opacity="1"></path><path d="m54.98 17.55-4.67 21.34c-.1.46-.51.79-.98.79h-28.98c-.47 0-.88-.33-.98-.79l-4.65-21.33c-.01 0-.01 0-.01 0l-1.18-5.37-7.84-2.57c-.53-.17-.81-.74-.64-1.26.17-.53.74-.81 1.26-.64l8.38 2.75c.34.11.59.39.67.73l1.13 5.14h6.43c-.01.26-.04.52-.04.78 0 7.79 6.33 14.12 14.12 14.12s14.12-6.33 14.12-14.12c0-.26-.03-.52-.04-.78h2.92c.3 0 .59.14.78.37.19.24.26.55.2.84z" fill="#ffffff" fill-opacity="1" data-original-color="#000000ff" stroke="none" stroke-opacity="1"></path><path d="m37 29.24c6.68 0 12.12-5.44 12.12-12.12s-5.44-12.12-12.12-12.12c-6.69 0-12.12 5.44-12.12 12.12s5.43 12.12 12.12 12.12zm-4.05-12.56 3.15-6.4c.17-.34.52-.56.9-.56s.73.22.89.56l3.16 6.4c.13.28.13.6 0 .88l-3.16 6.4c-.16.34-.51.56-.89.56s-.73-.22-.9-.56l-3.15-6.4c-.14-.28-.14-.6 0-.88z" fill="#ffffff" fill-opacity="1" data-original-color="#000000ff" stroke="none" stroke-opacity="1"></path></g></g></svg>