<svg xmlns="http://www.w3.org/2000/svg" xmlns:xodm="http://www.corel.com/coreldraw/odm/2003" xmlns:xlink="http://www.w3.org/1999/xlink" xmlns:svgjs="http://svgjs.dev/svgjs" clip-rule="evenodd" fill-rule="evenodd" height="300" image-rendering="optimizeQuality" shape-rendering="geometricPrecision" text-rendering="geometricPrecision" viewBox="0 0 512 512" width="300"><g width="100%" height="100%" transform="matrix(1,0,0,1,0,0)"><g id="Layer_x0020_1"><path d="m286.5 511.99h-61c-2.41 0-4.48-1.72-4.92-4.09l-11.96-64.68c-18.1-4.57-35.39-11.73-51.48-21.35l-54.22 37.29c-1.98 1.37-4.66 1.12-6.37-.58l-43.13-43.14c-1.7-1.7-1.95-4.38-.58-6.37l37.28-54.2c-9.6-16.08-16.77-33.37-21.34-51.49l-64.68-11.96c-2.37-.44-4.09-2.51-4.09-4.92v-61c0-2.41 1.72-4.48 4.09-4.92l64.68-11.96c4.57-18.11 11.74-35.4 21.35-51.48l-37.29-54.22c-1.37-1.98-1.12-4.66.58-6.37l43.14-43.13c1.7-1.71 4.38-1.95 6.36-.58l54.22 37.29c16.09-9.62 33.37-16.78 51.48-21.35l11.96-64.68c.44-2.37 2.51-4.09 4.92-4.09h61c2.41 0 4.48 1.72 4.92 4.09l11.96 64.68c18.1 4.57 35.38 11.73 51.48 21.35l54.21-37.29c1.99-1.37 4.67-1.12 6.37.58l43.14 43.14c1.7 1.7 1.95 4.38.58 6.36l-37.28 54.21c9.6 16.08 16.77 33.37 21.34 51.49l64.68 11.96c2.37.44 4.09 2.51 4.09 4.92v61c0 2.41-1.72 4.48-4.09 4.92l-64.68 11.96c-4.57 18.1-11.73 35.39-21.35 51.48l37.29 54.21c1.37 1.99 1.12 4.67-.58 6.37l-43.14 43.14c-1.7 1.7-4.38 1.95-6.37.58l-54.2-37.28c-16.08 9.61-33.37 16.77-51.49 21.34l-11.96 64.68c-.44 2.37-2.51 4.09-4.92 4.09zm-89.87-177.92-18.7-18.7-9.35 9.35c-2.49 2.49-3.85 5.81-3.85 9.35 0 3.55 1.36 6.87 3.85 9.36 2.48 2.48 5.8 3.85 9.35 3.85 3.54 0 6.86-1.37 9.35-3.85zm59.37 85.13c-89.99 0-163.2-73.21-163.2-163.2s73.21-163.2 163.2-163.2 163.2 73.21 163.2 163.2-73.21 163.2-163.2 163.2zm0-316.4c-84.48 0-153.2 68.72-153.2 153.2 0 84.47 68.72 153.2 153.2 153.2 84.47 0 153.2-68.72 153.2-153.2s-68.73-153.2-153.2-153.2zm-76.44 108.13c-4.72-2.21-8.81-4.78-13.13-9.6-10.56-11.82-14.16-27.95-9.62-43.16.53-1.8 2.04-3.15 3.9-3.49 15.61-2.82 31.25 2.55 41.81 14.36 3.08 3.44 5.6 7.3 7.5 11.5l44.3 44.3 63.2-63.2c.72-.77 1.69-1.31 2.8-1.5l31.11-5.34c1.6-.28 3.23.24 4.38 1.39s1.67 2.78 1.4 4.38l-5.33 31.01v.06l-.01.04-.01.02-.03.18-.01.03v.03l-.02.06v.02l-.01.04-.02.06v.01l-.01.04-.02.06v.01l-.02.05-.01.05v.01l-.02.06-.02.04v.02l-.02.05-.02.04-.01.02-.02.06-.01.02-.01.03-.02.06-.01.01-.02.05-.02.05v.01l-.02.05-.03.05-.03.06-.02.04v.01l-.03.06-.02.02-.01.03-.03.06-.01.01-.02.04-.03.05v.01l-.03.04-.03.05v.01l-.03.05-.03.03-.01.02-.03.05-.02.02-.02.03-.03.05-.01.01-.03.04-.03.05-.04.05-.03.04-.01.01-.03.05-.02.02-.02.02-.04.05-.01.02-.03.03-.04.05-.08.08-.01.01-.04.04-.02.02-.07.07-.01.01-63.3 63.3 63.66 63.66c4.05 4.05 6.28 9.45 6.28 15.21s-2.23 11.16-6.28 15.21c-4.06 4.05-9.46 6.28-15.22 6.28-5.75 0-11.16-2.23-15.21-6.28l-63.65-63.65-49.5 49.5h-.01l-.04.04-12.84 12.85c-4.38 4.37-10.21 6.78-16.42 6.78-6.22 0-12.05-2.41-16.42-6.78-4.38-4.38-6.78-10.21-6.78-16.43 0-6.21 2.4-12.04 6.78-16.42l12.79-12.79.09-.09 49.51-49.5-44.34-44.34zm20.22-28.54c-1.3-2.4-2.88-4.64-4.71-6.68-7.53-8.42-18.35-12.64-29.45-11.61-2.25 10.92.74 22.15 8.27 30.56 2.53 2.83 4.86 4.57 7.57 6.04zm49.88 98.65-18.69-18.7-45.97 45.96 18.7 18.7zm11.73-49.13 18.7 18.7 59.78-59.77-18.7-18.7zm-71.85-25.14 137.92 137.92c2.17 2.16 5.06 3.35 8.14 3.35 3.09 0 5.98-1.19 8.14-3.35 4.49-4.49 4.49-11.79 0-16.28l-92.86-92.87-.1-.09-.09-.09-44.87-44.87zm154.11-26.3 2.5-14.62-14.62 2.51z" fill="#ffffff" fill-opacity="1" data-original-color="#000000ff" stroke="none" stroke-opacity="1"></path></g></g></svg>