<svg xmlns="http://www.w3.org/2000/svg" xmlns:xlink="http://www.w3.org/1999/xlink" xmlns:svgjs="http://svgjs.dev/svgjs" id="Layer_1" viewBox="0 0 64 64" data-name="Layer 1" width="300" height="300"><g width="100%" height="100%" transform="matrix(1,0,0,1,0,0)"><path d="m26.103 56.452h-10.839c-.006 0-.011-.002-.016-.002h-.997v3.55h12.388v-3.55h-.525s-.006.002-.01.002z" fill="#ffffff" fill-opacity="1" data-original-color="#000000ff" stroke="none" stroke-opacity="1"></path><path d="m7.294 24.664v12.807c0 3.305 1.007 6.465 2.913 9.139l5.572 7.841h9.324v-7.837c-.167-2.926-1.747-4.856-4.693-5.679-1.696-.463-3.206-1.569-4.246-3.111l-1.606-2.354c-.237-.356-.63-.564-1.055-.564-.101 0-.218.017-.347.049-.007.002-.015.004-.021.006-.09.03-.209.084-.329.158-.58.365-.754 1.129-.385 1.733.392.643.848 1.391 1.314 2.15q3.019 4.938 3.019 5.297c0 .552-.447 1-1 1-.41 0-.762-.247-.917-.6-.156-.287-1.148-1.94-2.807-4.652-.467-.76-.925-1.511-1.316-2.154-.931-1.521-.466-3.53 1.039-4.476.044-.026.087-.052.131-.077v-8.676c0-.616-.24-1.195-.675-1.63-.436-.435-1.011-.675-1.62-.675-1.265 0-2.294 1.034-2.294 2.305z" fill="#ffffff" fill-opacity="1" data-original-color="#000000ff" stroke="none" stroke-opacity="1"></path><path d="m49.75 56.45h-.997c-.005 0-.011.002-.016.002h-10.839s-.006-.002-.01-.002h-.525v3.55h12.388v-3.55z" fill="#ffffff" fill-opacity="1" data-original-color="#000000ff" stroke="none" stroke-opacity="1"></path><path d="m56.706 37.47v-12.807c0-1.271-1.029-2.305-2.294-2.305-.609 0-1.185.24-1.62.675s-.675 1.014-.675 1.63v8.676c.04.022.08.045.119.069 1.517.954 1.981 2.962 1.049 4.485-.39.641-.848 1.392-1.316 2.154-1.656 2.709-2.648 4.363-2.805 4.649-.155.353-.507.6-.917.6-.553 0-1-.448-1-1q0-.359 3.017-5.294c.469-.762.925-1.51 1.314-2.151.371-.606.197-1.371-.395-1.743-.105-.064-.221-.117-.35-.16-.008-.002-.015-.004-.022-.006-.089-.022-.209-.04-.313-.04-.425 0-.817.208-1.049.555l-1.615 2.368c-1.037 1.538-2.547 2.644-4.248 3.108-2.941.821-4.521 2.751-4.69 5.734l.002 7.78h9.324l5.571-7.84c1.907-2.675 2.914-5.835 2.914-9.14z" fill="#ffffff" fill-opacity="1" data-original-color="#000000ff" stroke="none" stroke-opacity="1"></path><path d="m34.449 8.841h5.09v4.772h-5.09z" transform="matrix(.707 -.707 .707 .707 2.897 29.447)" fill="#ffffff" fill-opacity="1" data-original-color="#000000ff" stroke="none" stroke-opacity="1"></path><path d="m36.882 17.542-3.374 3.374 3.688 3.688.04-.04c.008-.008.015-.016.023-.023l3.311-3.311-3.687-3.687z" fill="#ffffff" fill-opacity="1" data-original-color="#000000ff" stroke="none" stroke-opacity="1"></path><path d="m27.426 35.893 2.135-6.07c-.479-.249-.925-.562-1.31-.947l-1.568-1.568-2.644 7.509 1.5-.601c.48-.192 1.022.011 1.26.468l.627 1.21z" fill="#ffffff" fill-opacity="1" data-original-color="#000000ff" stroke="none" stroke-opacity="1"></path><path d="m29.708 13.742h4.772v4.772h-4.772z" transform="matrix(.707 -.707 .707 .707 -2.004 27.417)" fill="#ffffff" fill-opacity="1" data-original-color="#000000ff" stroke="none" stroke-opacity="1"></path><path d="m31.092 28.3c.666.191 1.348.172 1.976-.052.004-.002.007-.005.011-.007.003-.001.006 0 .009-.001.478-.164.893-.423 1.247-.777l1.446-1.446-3.688-3.688-3.781 3.781 1.352 1.352c.402.402.882.684 1.427.837z" fill="#ffffff" fill-opacity="1" data-original-color="#000000ff" stroke="none" stroke-opacity="1"></path><path d="m37.466 34.684c.237-.457.781-.659 1.26-.468l1.495.599-2.714-7.696-1.758 1.758c-.326.326-.697.602-1.093.831l2.181 6.188.629-1.213z" fill="#ffffff" fill-opacity="1" data-original-color="#000000ff" stroke="none" stroke-opacity="1"></path><path d="m24.429 18.733h5.347v4.772h-5.347z" transform="matrix(.707 -.707 .707 .707 -6.995 25.35)" fill="#ffffff" fill-opacity="1" data-original-color="#000000ff" stroke="none" stroke-opacity="1"></path><path d="m20.753 13.88c-1.287 1.288-1.287 3.383 0 4.67l1.358 1.358 3.781-3.781-3.693-3.693z" fill="#ffffff" fill-opacity="1" data-original-color="#000000ff" stroke="none" stroke-opacity="1"></path><path d="m43.247 18.551c1.287-1.288 1.287-3.383 0-4.67l-1.352-1.352-3.599 3.599 3.687 3.687z" fill="#ffffff" fill-opacity="1" data-original-color="#000000ff" stroke="none" stroke-opacity="1"></path><path d="m34.324 4.958c-.64-.635-1.481-.953-2.324-.953s-1.678.315-2.318.947l-1.281 1.281 3.693 3.693 3.599-3.599-1.368-1.368z" fill="#ffffff" fill-opacity="1" data-original-color="#000000ff" stroke="none" stroke-opacity="1"></path><path d="m24.76 8.569h4.772v5.222h-4.772z" transform="matrix(.707 -.707 .707 .707 .045 22.469)" fill="#ffffff" fill-opacity="1" data-original-color="#000000ff" stroke="none" stroke-opacity="1"></path></g></svg>