<svg xmlns="http://www.w3.org/2000/svg" xmlns:xlink="http://www.w3.org/1999/xlink" xmlns:svgjs="http://svgjs.dev/svgjs" id="Layer_1" height="300" viewBox="0 0 100 100" width="300" data-name="Layer 1"><g width="100%" height="100%" transform="matrix(1,0,0,1,0,0)"><path d="m84.84 23.58-28.75-16.58a11.61 11.61 0 0 0 -11.6 0l-28.74 16.58a11.6 11.6 0 0 0 -5.81 10v33.2a11.6 11.6 0 0 0 5.81 10l28.74 16.6a11.61 11.61 0 0 0 11.6 0l28.75-16.6a11.59 11.59 0 0 0 5.8-10v-33.16a11.59 11.59 0 0 0 -5.8-10.04zm-50.51 17.42a1.49 1.49 0 0 1 1.84-1.06l5.09 1.36-1.36-5.13a1.5 1.5 0 1 1 2.89-.78l2 7.6a1.5 1.5 0 0 1 -.39 1.45 1.47 1.47 0 0 1 -1.06.44 1.31 1.31 0 0 1 -.39-.05l-7.6-2a1.49 1.49 0 0 1 -1.02-1.83zm18.86 21-7.54 7.54a4.21 4.21 0 0 1 -5.95 0l-9.26-9.24a4.21 4.21 0 0 1 0-5.95l7.56-7.54a1.49 1.49 0 0 1 2.12 0 1.51 1.51 0 0 1 0 2.12l-7.54 7.54a1.21 1.21 0 0 0 0 1.71l9.26 9.26a1.21 1.21 0 0 0 1.71 0l7.54-7.54a1.51 1.51 0 0 1 2.12 0 1.49 1.49 0 0 1 -.02 2.1zm12.44-3a1.5 1.5 0 0 1 -1.84 1.06l-5.09-1.36 1.36 5.09a1.5 1.5 0 0 1 -1.06 1.84 1.31 1.31 0 0 1 -.39.05 1.49 1.49 0 0 1 -1.44-1.11l-2-7.6a1.5 1.5 0 0 1 1.83-1.84l7.61 2a1.49 1.49 0 0 1 1.02 1.87zm3.93-13.35-7.56 7.54a1.49 1.49 0 0 1 -1.06.44 1.53 1.53 0 0 1 -1.06-.44 1.51 1.51 0 0 1 0-2.12l7.54-7.54a1.21 1.21 0 0 0 0-1.71l-9.26-9.26a1.21 1.21 0 0 0 -1.71 0l-7.52 7.54a1.51 1.51 0 0 1 -2.12 0 1.49 1.49 0 0 1 0-2.12l7.54-7.54a4.21 4.21 0 0 1 5.95 0l9.26 9.26a4.21 4.21 0 0 1 0 5.95z" fill="#ffffff" fill-opacity="1" data-original-color="#000000ff" stroke="none" stroke-opacity="1"></path></g></svg>