<svg xmlns="http://www.w3.org/2000/svg" xmlns:xlink="http://www.w3.org/1999/xlink" xmlns:svgjs="http://svgjs.dev/svgjs" id="Layer_1" viewBox="0 0 64 64" data-name="Layer 1" width="300" height="300"><g width="100%" height="100%" transform="matrix(1,0,0,1,0,0)"><path d="m51.798 56.039h-1.113s-.008.002-.012.002c-.006 0-.011-.002-.016-.002h-14.523s-.006.002-.01.002-.006-.002-.01-.002h-.211c-.069 0-.126.056-.126.125v3.71c0 .069.057.125.126.125h15.895c.069 0 .125-.056.125-.125v-3.71c0-.069-.056-.125-.125-.125z" fill="#ffffff" fill-opacity="1" data-original-color="#000000ff" stroke="none" stroke-opacity="1"></path><path d="m54.969 19.155c-.877.257-1.446 1.098-1.358 2.002l.65 6.814c.294 3.061-.547 6.116-2.369 8.604l-6.48 8.827c-.298.405-.85.527-1.289.284-.439-.242-.632-.773-.449-1.24l4.663-11.916c.083-.211.125-.436.125-.668 0-.532-.227-1.036-.622-1.382-.428-.377-.994-.536-1.549-.433-.558.101-1.031.446-1.297.947l-5.985 11.231c-1.233 2.314-1.885 4.92-1.885 7.537v4.275h12.176c-.255-1.299-.026-2.662.676-3.799l5.862-9.469c.362-.588.76-1.146 1.144-1.685l.235-.331c3.232-4.569 1.166-14.289.127-18.256-.265-1.018-1.363-1.642-2.375-1.344z" fill="#ffffff" fill-opacity="1" data-original-color="#000000ff" stroke="none" stroke-opacity="1"></path><path d="m28.097 56.039h-.211s-.006.002-.01.002-.006-.002-.01-.002h-14.523c-.006 0-.011.002-.016.002-.004 0-.008-.002-.012-.002h-1.113c-.069 0-.125.056-.125.125v3.71c0 .069.056.125.125.125h15.895c.069 0 .126-.056.126-.125v-3.71c0-.069-.057-.125-.126-.125z" fill="#ffffff" fill-opacity="1" data-original-color="#000000ff" stroke="none" stroke-opacity="1"></path><path d="m8.164 40.771 5.86 9.467c.703 1.139.932 2.505.678 3.8h12.175v-4.275c0-2.616-.652-5.222-1.885-7.537l-5.985-11.231c-.267-.501-.74-.846-1.298-.947-.559-.103-1.122.056-1.546.431-.397.348-.624.852-.624 1.384 0 .232.042.457.124.667l4.663 11.917c.183.467-.009.998-.449 1.24-.439.244-.99.122-1.289-.284l-6.48-8.826c-1.823-2.488-2.664-5.544-2.37-8.605l.649-6.811c.089-.907-.48-1.748-1.354-2.003-1.033-.308-2.114.325-2.378 1.341-1.039 3.968-3.105 13.688.127 18.258l.235.331c.384.539.782 1.097 1.145 1.686z" fill="#ffffff" fill-opacity="1" data-original-color="#000000ff" stroke="none" stroke-opacity="1"></path><path d="m45.138 17.138c0-7.245-5.894-13.138-13.138-13.138s-13.138 5.894-13.138 13.138 5.894 13.138 13.138 13.138 13.138-5.894 13.138-13.138zm-4.536 0c0-4.744-3.859-8.603-8.603-8.603-.552 0-1-.448-1-1s.448-1 1-1c5.846 0 10.603 4.756 10.603 10.603 0 .552-.448 1-1 1s-1-.448-1-1z" fill="#ffffff" fill-opacity="1" data-original-color="#000000ff" stroke="none" stroke-opacity="1"></path></g></svg>