<svg xmlns="http://www.w3.org/2000/svg" xmlns:xlink="http://www.w3.org/1999/xlink" xmlns:svgjs="http://svgjs.dev/svgjs" id="select" height="300" viewBox="0 0 25 25" width="300"><g width="100%" height="100%" transform="matrix(1,0,0,1,0,0)"><path d="m6.5 6.5h-2.5v-2.5h2.5zm14.5-2.5h-2.5v2.5h2.5zm-17 17h2.5v-2.5h-2.5zm7.99-6.33.91-1.7 1.7-.91-3.77-1.16zm9.01 1.83h-4.5v4.5h-8v-4.5h-4.5v-8h4.5v-4.5h8v4.5h4.5zm-4.37-4.65-6.99-2.14 2.14 6.99 1.51-2.78 2.05 2.05.56-.56-2.05-2.05zm1.87 9.15h2.5v-2.5h-2.5zm-16.5-13v-6h6v6zm5-1v-4h-4v4zm1 10v6h-6v-6zm-5 1v4h4v-4zm20-16v6h-6v-6zm-1 1h-4v4h4zm1 14v6h-6v-6zm-5 1v4h4v-4z" fill="#ffffff" fill-opacity="1" data-original-color="#000000ff" stroke="none" stroke-opacity="1"></path></g></svg>