<svg xmlns="http://www.w3.org/2000/svg" xmlns:xlink="http://www.w3.org/1999/xlink" xmlns:svgjs="http://svgjs.dev/svgjs" id="Layer_1_1_" height="300" viewBox="0 0 64 64" width="300"><g width="100%" height="100%" transform="matrix(1,0,0,1,0,0)"><path d="m55 59h5v1h-5z" fill="#ffffff" fill-opacity="1" data-original-color="#000000ff" stroke="none" stroke-opacity="1"></path><path d="m28.948 11.14c-1.018-.298-2.095-.116-2.957.5-1.794 1.282-4.162 1.354-6.032.186l-.437-.273c-.929-.581-2.047-.685-3.066-.286-1.02.399-1.77 1.234-2.058 2.291l-1.398 6.548v.674c.532-.48 1.229-.78 2-.78h4c1.302 0 2.402.839 2.816 2h2.369c.414-1.161 1.514-2 2.816-2h4c.771 0 1.468.301 2 .78v-1.63l-1.861-6.071c-.367-.906-1.176-1.641-2.192-1.939z" fill="#ffffff" fill-opacity="1" data-original-color="#000000ff" stroke="none" stroke-opacity="1"></path><path d="m42 54.15v-5.15c0-.006-.018-.489-1.365-1.455l-.141.141c.391.391.391 1.023 0 1.414l-2.494 2.494v3.898l1.052-.131c1.086-.136 2.09-.566 2.948-1.211z" fill="#ffffff" fill-opacity="1" data-original-color="#000000ff" stroke="none" stroke-opacity="1"></path><path d="m31 24c.551 0 1-.449 1-1s-.449-1-1-1h-1.568c.199.284.318.628.318 1s-.119.716-.318 1z" fill="#ffffff" fill-opacity="1" data-original-color="#000000ff" stroke="none" stroke-opacity="1"></path><path d="m27 42.586v-5.286c-1.253.445-2.596.7-4 .7s-2.747-.255-4-.7v5.286l4 4z" fill="#ffffff" fill-opacity="1" data-original-color="#000000ff" stroke="none" stroke-opacity="1"></path><path d="m29 43c0 .265-.105.52-.293.707l-3.956 3.956 4.107 1.76 5.185-5.185c-1.975-.796-3.85-1.455-5.043-1.857z" fill="#ffffff" fill-opacity="1" data-original-color="#000000ff" stroke="none" stroke-opacity="1"></path><path d="m26 23c0 .35.192.644.465.823-.133-.247-.215-.524-.215-.823s.082-.576.215-.823c-.273.179-.465.473-.465.823z" fill="#ffffff" fill-opacity="1" data-original-color="#000000ff" stroke="none" stroke-opacity="1"></path><path d="m11 24v-3h-.5c-.827 0-1.5.673-1.5 1.5s.673 1.5 1.5 1.5z" fill="#ffffff" fill-opacity="1" data-original-color="#000000ff" stroke="none" stroke-opacity="1"></path><path d="m15 22c-.551 0-1 .449-1 1s.449 1 1 1h1.568c-.199-.284-.318-.628-.318-1s.119-.716.318-1z" fill="#ffffff" fill-opacity="1" data-original-color="#000000ff" stroke="none" stroke-opacity="1"></path><path d="m12.455 13.086c.469-1.727 1.657-3.049 3.272-3.681 1.616-.633 3.386-.467 4.855.452l.437.273c1.182.739 2.677.692 3.81-.117 1.365-.975 3.072-1.263 4.682-.792 1.341.393 2.453 1.266 3.147 2.447l-.071-1.54c-.347-2.094-1.609-3.881-3.469-4.909-1.875-1.036-4.081-1.145-6.051-.302l-4.672 2.002c-.125.054-.26.081-.395.081-3.286 0-5.963 2.655-6 5.932l.195 1.367z" fill="#ffffff" fill-opacity="1" data-original-color="#000000ff" stroke="none" stroke-opacity="1"></path><path d="m20 23c0-.35-.192-.644-.465-.823.133.246.215.524.215.823s-.082.576-.215.823c.273-.179.465-.473.465-.823z" fill="#ffffff" fill-opacity="1" data-original-color="#000000ff" stroke="none" stroke-opacity="1"></path><path d="m37 22.5c0-.827-.673-1.5-1.5-1.5h-.5v3h.5c.827 0 1.5-.673 1.5-1.5z" fill="#ffffff" fill-opacity="1" data-original-color="#000000ff" stroke="none" stroke-opacity="1"></path><path d="m25.862 49.575h13v4h-13z" transform="matrix(.707 -.707 .707 .707 -26.991 37.99)" fill="#ffffff" fill-opacity="1" data-original-color="#000000ff" stroke="none" stroke-opacity="1"></path><path d="m14.201 43.353 2.368 6.315 4.68-2.006-3.956-3.956c-.188-.186-.293-.441-.293-.706v-.627c-.958.317-1.895.645-2.799.98z" fill="#ffffff" fill-opacity="1" data-original-color="#000000ff" stroke="none" stroke-opacity="1"></path><path d="m56.757 38.494-.707.707.707.707 2.814-2.814c-.392.375-1.014.371-1.399-.015l-2.122-2.122-1.415 1.415z" fill="#ffffff" fill-opacity="1" data-original-color="#000000ff" stroke="none" stroke-opacity="1"></path><path d="m46.723 28.459c.117.117.228.222.329.319.708.674 1.509 1.438.705 3.084-.308.63-.864 2.423-1.187 3.515l1.973 1.973 3.433-1.145 3.369-3.369-2.709-2.709c-2.407-2.407-5.8-3.495-9.146-2.945l1.359.272c.711.144 1.359.491 1.874 1.005z" fill="#ffffff" fill-opacity="1" data-original-color="#000000ff" stroke="none" stroke-opacity="1"></path><path d="m48.368 51.581-1.054-.396-2.723 3.268c-.138.166-.286.322-.436.476l.83 1.245c.249.374.721.537 1.148.394l4.918-1.64c.926-.308 1.911-.158 2.703.413.575.414.965.998 1.139 1.659h5.107v-5.468c-3.717 1.426-7.876 1.457-11.632.049z" fill="#ffffff" fill-opacity="1" data-original-color="#000000ff" stroke="none" stroke-opacity="1"></path><path d="m36.761 40.676h11v2h-11z" transform="matrix(.707 -.707 .707 .707 -17.091 42.085)" fill="#ffffff" fill-opacity="1" data-original-color="#000000ff" stroke="none" stroke-opacity="1"></path><path d="m51.684 56.826-4.918 1.64c-1.283.425-2.697-.06-3.445-1.182l-.735-1.102c-.991.611-2.105 1.016-3.286 1.163l-2.962.37c-.763.096-1.338.747-1.338 1.516v.769h13.723l4.206-2.524c-.064-.201-.167-.385-.344-.513-.265-.19-.594-.24-.901-.137z" fill="#ffffff" fill-opacity="1" data-original-color="#000000ff" stroke="none" stroke-opacity="1"></path><path d="m27.335 50.946-4.335-1.858-6.606 2.831c-.126.054-.26.081-.394.081s-.267-.027-.393-.081c-.251-.107-.448-.313-.544-.568l-1.063-2.836v5.485h10.281z" fill="#ffffff" fill-opacity="1" data-original-color="#000000ff" stroke="none" stroke-opacity="1"></path><path d="m24.766 56h-14.766v4h19.18c-.256 0-.512-.098-.707-.293z" fill="#ffffff" fill-opacity="1" data-original-color="#000000ff" stroke="none" stroke-opacity="1"></path><path d="m36 53.594-6.113 6.113c-.195.195-.451.293-.707.293h3.82v-.769c0-1.744 1.285-3.22 3-3.48z" fill="#ffffff" fill-opacity="1" data-original-color="#000000ff" stroke="none" stroke-opacity="1"></path><path d="m4 49v11h4v-13.995c-2.448 1.231-4 2.336-4 2.995z" fill="#ffffff" fill-opacity="1" data-original-color="#000000ff" stroke="none" stroke-opacity="1"></path><path d="m10 54h2v-9.791c-.699.284-1.367.568-2 .851z" fill="#ffffff" fill-opacity="1" data-original-color="#000000ff" stroke="none" stroke-opacity="1"></path><path d="m13 26c0 5.514 4.486 10 10 10s10-4.486 10-10v-.78c-.532.48-1.229.78-2 .78h-4c-1.302 0-2.402-.839-2.816-2h-2.369c-.414 1.161-1.514 2-2.816 2h-4c-.771 0-1.468-.301-2-.78v.78zm7.75 4.984c0 .147.119.266.266.266h3.968c.147 0 .266-.119.266-.266h1.5c0 .974-.792 1.766-1.766 1.766h-3.968c-.974 0-1.766-.792-1.766-1.766z" fill="#ffffff" fill-opacity="1" data-original-color="#000000ff" stroke="none" stroke-opacity="1"></path></g></svg>