<svg xmlns="http://www.w3.org/2000/svg" xmlns:xlink="http://www.w3.org/1999/xlink" xmlns:svgjs="http://svgjs.dev/svgjs" id="Capa_1" viewBox="0 0 512 512" width="300" height="300"><g width="100%" height="100%" transform="matrix(1,0,0,1,0,0)"><g><path d="m507.61 41.378-37-37c-5.82-5.81-15.4-5.81-21.22 0-5.81 5.82-5.81 15.4 0 21.22l11.4 11.39c-136.527 0-273.053 0-409.58 0l11.4-11.39c5.82-5.82 5.82-15.4 0-21.22-5.82-5.82-15.399-5.82-21.22 0l-37 37c-5.76 5.77-5.77 15.45 0 21.22l37 37c5.82 5.82 15.399 5.82 21.22 0s5.82-15.4 0-21.22l-11.4-11.39h409.58l-11.4 11.39c-5.82 5.82-5.82 15.399 0 21.22 5.82 5.82 15.4 5.82 21.22 0l37-37c.42-.43.81-.89 1.19-1.36 4.61-5.89 4.1-14.56-1.19-19.86z" fill="#ffffff" fill-opacity="1" data-original-color="#000000ff" stroke="none" stroke-opacity="1"></path><path d="m497 391.988h-46v45c0 8.28-6.72 15-15 15s-15-6.72-15-15v-45h-30v45c0 8.28-6.72 15-15 15s-15-6.72-15-15v-45h-30v45c0 8.28-6.72 15-15 15s-15-6.72-15-15v-45h-30v45c0 8.229-6.771 15-15 15s-15-6.771-15-15v-45h-30v45c0 8.229-6.771 15-15 15s-15-6.771-15-15v-45h-30v45c0 8.28-6.72 15-15 15s-15-6.72-15-15v-45h-30v45c0 8.28-6.72 15-15 15s-15-6.72-15-15v-45h-46c-8.28 0-15 6.72-15 15v90c0 8.28 6.72 15 15 15h482c8.28 0 15-6.72 15-15v-90c0-8.28-6.72-15-15-15z" fill="#ffffff" fill-opacity="1" data-original-color="#000000ff" stroke="none" stroke-opacity="1"></path><g><path d="m373 100.222h-64v115c0 5.739-3.294 10.996-8.458 13.499-5.165 2.503-11.331 1.831-15.836-1.725l-28.706-22.663-28.706 22.662c-4.511 3.563-10.663 4.233-15.836 1.725-5.173-2.507-8.458-7.75-8.458-13.499v-115h-64c-8.28 0-15 6.72-15 15v234c0 8.28 6.72 15 15 15h234c8.28 0 15-6.72 15-15v-234c0-8.279-6.72-14.999-15-14.999zm-60 208h-114c-8.284 0-15-6.716-15-15s6.716-15 15-15h114c8.284 0 15 6.716 15 15s-6.716 15-15 15z" fill="#ffffff" fill-opacity="1" data-original-color="#000000ff" stroke="none" stroke-opacity="1"></path><path d="m256 170.222c1.235 0 5.401.153 9.294 3.227l13.706 10.82v-84.047c-15.333 0-30.667 0-46 0v84.047l13.706-10.82c.969-.766 4.333-3.227 9.294-3.227z" fill="#ffffff" fill-opacity="1" data-original-color="#000000ff" stroke="none" stroke-opacity="1"></path></g></g><g></g><g></g><g></g><g></g><g></g><g></g><g></g><g></g><g></g><g></g><g></g><g></g><g></g><g></g><g></g></g></svg>