<svg xmlns="http://www.w3.org/2000/svg" xmlns:xlink="http://www.w3.org/1999/xlink" xmlns:svgjs="http://svgjs.dev/svgjs" id="glphy_color" viewBox="0 0 64 64" data-name="glphy color" width="300" height="300"><g width="100%" height="100%" transform="matrix(1,0,0,1,0,0)"><path d="m27.21 7.5h9.58c.82 0 1.1-.89 1.36-1.5l.85-2h-14l.86 2c.25.61.56 1.55 1.35 1.5z" fill="#ffffff" fill-opacity="1" data-original-color="#000000ff" stroke="none" stroke-opacity="1"></path><path d="m35.81 53.34-4.54-5.16a3 3 0 0 1 -.07-3.88l4.46-5.3a2.75 2.75 0 0 1 1.93-1.05 3.06 3.06 0 0 1 1.18-3.26l.61-.45a2.85 2.85 0 0 1 -.51-.08l-6.69-1.49a2.92 2.92 0 0 1 -1.86-1.26 3 3 0 0 1 -3.44.46l-.54-.24a4.15 4.15 0 0 0 -.43-.24v.11l1.77 6.67a2.88 2.88 0 0 1 -.24 2.14 3.28 3.28 0 0 1 2 2.89l.11 6.1a3 3 0 0 1 -2.95 3.06l-9.09.11v1.37a6.2 6.2 0 0 0 6.18 6.16h16.62a6.2 6.2 0 0 0 6.19-6.19v-1.81l-5.5.1a3 3 0 0 1 -5.19 1.24z" fill="#ffffff" fill-opacity="1" data-original-color="#000000ff" stroke="none" stroke-opacity="1"></path><path d="m21.41 29.11a3 3 0 0 1 -1.3-4.11l4.3-8.56a3 3 0 0 1 2.71-1.71h8.68a3 3 0 0 1 2.65 1.59l2.92 5.49a3 3 0 0 1 3.47 4.1l-2.33 6c1.14-.91 2.47-1.9 4-1.25v-20.47a6.18 6.18 0 0 0 -5.33-6.12c-1.06 2-1.49 5.47-4.38 5.43h-9.59a3.06 3.06 0 0 1 -2.88-2l-.66-1.5-.84-1.93a6.18 6.18 0 0 0 -5.33 6.12v19.59c1.06-.14 3-.33 4.32-.46z" fill="#ffffff" fill-opacity="1" data-original-color="#000000ff" stroke="none" stroke-opacity="1"></path><path d="m32.58 30.67 6.76 1.51a1 1 0 0 0 1.15-.61l2.51-6.45a1 1 0 0 0 -1.4-1.25l-1.11.59-3.82-7.18a1 1 0 0 0 -.88-.53h-3.93c.11.18.19.36.26.5s1.87 3.49 2 3.77a3 3 0 0 1 0 2.71l-1.42 3.12.73 1.37c-.35.22-1.2.55-1.41.86a1 1 0 0 0 .56 1.59z" fill="#ffffff" fill-opacity="1" data-original-color="#000000ff" stroke="none" stroke-opacity="1"></path><path d="m32.36 22-1.71-3.21c-.43-.66-.76-2-1.66-2h-1.87a1 1 0 0 0 -.92.61l-4.34 8.6a1 1 0 0 0 .44 1.34l5.53 2.75a1 1 0 0 0 1.35-.47c.6-1.26 2.64-5.55 3.2-6.74a1 1 0 0 0 -.02-.88z" fill="#ffffff" fill-opacity="1" data-original-color="#000000ff" stroke="none" stroke-opacity="1"></path><path d="m18.86 40.42 3.46-.12.89-1.3c.72.5 1.84 1.5 2.49.35a1 1 0 0 0 .08-.71l-1.78-6.64a1 1 0 0 0 -1.07-.74c-1.25.14-4.21.43-5.43.58-.71.13-2.12-.06-2.32.9s.89 1.37 1.43 1.78l-4.61 6.65a1 1 0 0 0 -.06 1l1.81 3.48c.46-.62 2.28-3.29 2.74-4a3 3 0 0 1 2.37-1.23z" fill="#ffffff" fill-opacity="1" data-original-color="#000000ff" stroke="none" stroke-opacity="1"></path><path d="m27.54 49.31-.11-6.17a1 1 0 0 0 -1-1l-7.47.26a1 1 0 0 0 -.79.43l-2.06 3c-.4.73-1.46 1.63-1 2.4l.86 1.66a1 1 0 0 0 .88.54c.37 0 8.92-.09 9.73-.11a1 1 0 0 0 .96-1.01z" fill="#ffffff" fill-opacity="1" data-original-color="#000000ff" stroke="none" stroke-opacity="1"></path><path d="m42.63 44.86-1.21-1.57-.9-1.19h-1.55v-1.25a1 1 0 0 0 -1.76-.63l-4.44 5.32a1 1 0 0 0 0 1.3l4.58 5.2a1 1 0 0 0 1.1.27c.91-.29.6-1.49.64-2.2l7.41-.11c.54 0 1.33.06 1.58-.55l1.8-3.5-4.88.05a3 3 0 0 1 -2.37-1.14z" fill="#ffffff" fill-opacity="1" data-original-color="#000000ff" stroke="none" stroke-opacity="1"></path><path d="m52 40.73-5.5-7.56a1.1 1.1 0 0 0 -1.63-.53l-.37.27-4.6 3.39a1 1 0 0 0 -.21 1.41l4.53 5.94a1 1 0 0 0 .78.35l5.3-.07a1 1 0 0 0 .93-.66 8.73 8.73 0 0 0 .91-2 1 1 0 0 0 -.14-.54z" fill="#ffffff" fill-opacity="1" data-original-color="#000000ff" stroke="none" stroke-opacity="1"></path></g></svg>