<svg xmlns="http://www.w3.org/2000/svg" xmlns:xlink="http://www.w3.org/1999/xlink" xmlns:svgjs="http://svgjs.dev/svgjs" id="Layer_1" height="300" viewBox="0 0 60 60" width="300"><g width="100%" height="100%" transform="matrix(1,0,0,1,0,0)"><g><path d="m45.22 26.67c-6.5 0-11.78-5.28-11.78-11.78 0-1.47.28-2.87.77-4.17h-28.21c-.36 0-.7.2-.87.52-.18.32-.16.71.03 1.02.17.26 2.83 4.31 7.06 6.97v14.05c0 9.8 8 21.63 17.93 21.63 9.94 0 17.94-11.83 17.94-21.63v-6.98c-.92.22-1.88.37-2.87.37zm-23.65 3.88c0 .55-.45 1-1 1-.56 0-1-.45-1-1 0-2.14 1.73-3.87 3.87-3.87 2.13 0 3.86 1.73 3.86 3.87 0 .55-.44 1-1 1-.55 0-1-.45-1-1 0-1.03-.83-1.87-1.86-1.87-1.04 0-1.87.84-1.87 1.87zm13.9 13.46c-1.59 1.16-3.45 1.74-5.31 1.74-1.87 0-3.73-.58-5.32-1.74-.45-.32-.55-.95-.22-1.39.32-.45.95-.55 1.39-.23 2.48 1.81 5.81 1.8 8.29 0 .44-.32 1.07-.22 1.39.23.33.44.23 1.07-.22 1.39zm4.27-12.46c-.55 0-1-.45-1-1 0-1.03-.83-1.87-1.87-1.87-1.03 0-1.87.84-1.87 1.87 0 .55-.44 1-1 1-.55 0-1-.45-1-1 0-2.14 1.74-3.87 3.87-3.87 2.14 0 3.87 1.73 3.87 3.87 0 .55-.44 1-1 1z" fill="#ffffff" fill-opacity="1" data-original-color="#000000ff" stroke="none" stroke-opacity="1"></path><path d="m45.22 5.1c-5.39 0-9.78 4.39-9.78 9.79 0 5.39 4.39 9.78 9.78 9.78 5.4 0 9.78-4.39 9.78-9.78 0-5.4-4.38-9.79-9.78-9.79zm4.72 7.69-5.59 5.59c-.2.2-.45.29-.71.29s-.51-.1-.71-.29l-2.44-2.44c-.39-.39-.39-1.02 0-1.41s1.02-.39 1.41 0l1.73 1.73 4.88-4.88c.39-.39 1.02-.39 1.41 0s.41 1.02.02 1.41z" fill="#ffffff" fill-opacity="1" data-original-color="#000000ff" stroke="none" stroke-opacity="1"></path></g></g></svg>