<svg xmlns="http://www.w3.org/2000/svg" xmlns:xlink="http://www.w3.org/1999/xlink" xmlns:svgjs="http://svgjs.dev/svgjs" id="Capa_1" height="300" viewBox="0 0 512 512" width="300"><g width="100%" height="100%" transform="matrix(1,0,0,1,0,0)"><g><path d="m447.193 203.067v-85.034h-85.034l-3.547 3.547 18.407 18.407-56.922 56.921v96.441l105.142-105.142 18.407 18.407z" fill="#ffffff" fill-opacity="1" data-original-color="#000000ff" stroke="none" stroke-opacity="1"></path><path d="m212.405 341.388c0-.022.002-.045.002-.067s-.002-.045-.002-.067z" fill="#ffffff" fill-opacity="1" data-original-color="#000000ff" stroke="none" stroke-opacity="1"></path><path d="m299.595 341.253c0 .022-.002.045-.002.067s.002.045.002.067z" fill="#ffffff" fill-opacity="1" data-original-color="#000000ff" stroke="none" stroke-opacity="1"></path><path d="m299.593 341.32c-.037-24.046-19.539-43.527-43.593-43.527s-43.556 19.482-43.593 43.527c.03 19.489 12.847 35.977 30.511 41.527h-137.486v64.578l76.303 16.548v48.027h148.53v-48.026l76.303-16.548v-64.578h-137.486c17.664-5.55 30.481-22.039 30.511-41.528z" fill="#ffffff" fill-opacity="1" data-original-color="#000000ff" stroke="none" stroke-opacity="1"></path><path d="m221.903 276.207c10.203-5.362 21.8-8.414 34.097-8.414s23.894 3.052 34.097 8.414v-211.062h26.031v-5.016l-60.128-60.129-60.128 60.128v5.016h26.031z" fill="#ffffff" fill-opacity="1" data-original-color="#000000ff" stroke="none" stroke-opacity="1"></path><path d="m30.854 415.137c0 17.833 14.456 32.289 32.289 32.289h12.289v-64.578h-12.289c-17.833 0-32.289 14.456-32.289 32.289z" fill="#ffffff" fill-opacity="1" data-original-color="#000000ff" stroke="none" stroke-opacity="1"></path><path d="m448.857 382.848h-12.289v64.578h12.289c17.833 0 32.289-14.456 32.289-32.289 0-17.833-14.456-32.289-32.289-32.289z" fill="#ffffff" fill-opacity="1" data-original-color="#000000ff" stroke="none" stroke-opacity="1"></path><path d="m191.903 196.909-56.923-56.922 18.407-18.407-3.547-3.547h-85.034v85.034l3.547 3.547 18.407-18.407 105.143 105.143z" fill="#ffffff" fill-opacity="1" data-original-color="#000000ff" stroke="none" stroke-opacity="1"></path></g></g></svg>