<svg xmlns="http://www.w3.org/2000/svg" xmlns:xlink="http://www.w3.org/1999/xlink" xmlns:svgjs="http://svgjs.dev/svgjs" clip-rule="evenodd" fill-rule="evenodd" height="300" stroke-linejoin="round" stroke-miterlimit="2" viewBox="0 0 32 32" width="300"><g width="100%" height="100%" transform="matrix(1,0,0,1,0,0)"><path d="m19.989 1.993v1.507c0 .414.336.75.75.75s.75-.336.75-.75v-1.507c0-.414-.336-.75-.75-.75s-.75.336-.75.75z" fill="#ffffff" fill-opacity="1" data-original-color="#000000ff" stroke="none" stroke-opacity="1"></path><path d="m26.752 4.173-1.067 1.066c-.292.293-.292.768 0 1.061.293.293.768.293 1.061 0l1.067-1.067c.292-.292.292-.768 0-1.06-.293-.293-.768-.293-1.061 0z" fill="#ffffff" fill-opacity="1" data-original-color="#000000ff" stroke="none" stroke-opacity="1"></path><path d="m29.993 10.496h-1.508c-.414 0-.75.336-.75.75s.336.75.75.75h1.508c.414 0 .75-.336.75-.75s-.336-.75-.75-.75z" fill="#ffffff" fill-opacity="1" data-original-color="#000000ff" stroke="none" stroke-opacity="1"></path><path d="m13.665 5.233 1.067 1.067c.293.293.768.293 1.061 0 .292-.293.292-.768 0-1.061l-1.067-1.066c-.293-.293-.768-.293-1.061 0-.292.292-.292.768 0 1.06z" fill="#ffffff" fill-opacity="1" data-original-color="#000000ff" stroke="none" stroke-opacity="1"></path><path d="m9.254 14.769h-.028c-4.41 0-7.991 3.58-7.991 7.991 0 2.943 1.555 7.99 7.512 7.99h15.446c2.132 0 3.759-.752 4.861-1.935 1.099-1.181 1.681-2.806 1.681-4.607 0-3.395-2.585-6.186-5.894-6.511-.761-3.931-4.223-6.903-8.375-6.903-3.033 0-5.699 1.586-7.212 3.975zm7.403 2.369c-.132-.239-.384-.388-.657-.388s-.525.149-.657.388c0 0-1.255 2.284-2.009 4.338-.351.957-.586 1.871-.586 2.522 0 1.795 1.457 3.252 3.252 3.252s3.252-1.457 3.252-3.252c0-.651-.235-1.565-.586-2.522-.754-2.054-2.009-4.338-2.009-4.338zm-.657 1.992c.394.796.889 1.858 1.258 2.863.279.763.494 1.486.494 2.005 0 .967-.785 1.752-1.752 1.752s-1.752-.785-1.752-1.752c0-.519.215-1.242.494-2.005.369-1.005.864-2.067 1.258-2.863z" fill="#ffffff" fill-opacity="1" data-original-color="#000000ff" stroke="none" stroke-opacity="1"></path><path d="m14.999 9.401c.479-.071.969-.107 1.467-.107 3.986 0 7.431 2.33 9.048 5.7.794-1.023 1.267-2.307 1.267-3.702 0-3.335-2.707-6.042-6.042-6.042-2.674 0-4.945 1.741-5.74 4.151z" fill="#ffffff" fill-opacity="1" data-original-color="#000000ff" stroke="none" stroke-opacity="1"></path></g></svg>