<svg xmlns="http://www.w3.org/2000/svg" id="Layer_1" data-name="Layer 1" viewBox="0 0 64 64"><path d="M54.219,22.8A9.334,9.334,0,0,0,41.2,9.781a9.333,9.333,0,0,0-18.406,0A9.333,9.333,0,0,0,9.781,22.8a9.333,9.333,0,0,0,0,18.406A9.333,9.333,0,0,0,22.8,54.218a9.333,9.333,0,0,0,18.406,0A9.334,9.334,0,0,0,54.219,41.2a9.333,9.333,0,0,0,0-18.406ZM51.8,12.2a7.335,7.335,0,0,1,.254,10.089A22.432,22.432,0,0,0,41.711,11.947,7.336,7.336,0,0,1,51.8,12.2ZM32,52.283A20.283,20.283,0,1,1,52.284,32,20.306,20.306,0,0,1,32,52.283ZM32,4a7.335,7.335,0,0,1,7.313,6.956,22.2,22.2,0,0,0-14.626,0A7.335,7.335,0,0,1,32,4ZM12.2,12.2a7.334,7.334,0,0,1,10.088-.253A22.421,22.421,0,0,0,11.947,22.29,7.335,7.335,0,0,1,12.2,12.2ZM4,32a7.335,7.335,0,0,1,6.955-7.313,22.2,22.2,0,0,0,0,14.626A7.335,7.335,0,0,1,4,32Zm8.2,19.8a7.334,7.334,0,0,1-.254-10.088A22.428,22.428,0,0,0,22.289,52.052,7.333,7.333,0,0,1,12.2,51.8ZM32,60a7.335,7.335,0,0,1-7.313-6.956,22.2,22.2,0,0,0,14.626,0A7.335,7.335,0,0,1,32,60Zm19.8-8.2a7.337,7.337,0,0,1-10.088.254A22.432,22.432,0,0,0,52.053,41.71,7.335,7.335,0,0,1,51.8,51.8Zm1.246-12.486a22.2,22.2,0,0,0,0-14.626,7.322,7.322,0,0,1,0,14.626Z"></path><path d="M41.848,25.947l-4.187-.608a1.213,1.213,0,0,1-.911-.662l-1.872-3.793a3.209,3.209,0,0,0-5.756,0L27.25,24.677a1.213,1.213,0,0,1-.911.662l-4.186.608a3.208,3.208,0,0,0-1.778,5.474L23.4,34.373a1.212,1.212,0,0,1,.348,1.071l-.715,4.169A3.209,3.209,0,0,0,27.693,43l3.745-1.969a1.21,1.21,0,0,1,1.125,0L36.308,43a3.209,3.209,0,0,0,4.656-3.385l-.715-4.169a1.214,1.214,0,0,1,.347-1.071l3.029-2.952a3.208,3.208,0,0,0-1.777-5.474Zm.382,4.042L39.2,32.941a3.211,3.211,0,0,0-.922,2.841l.715,4.169a1.21,1.21,0,0,1-1.755,1.277l-3.744-1.969a3.209,3.209,0,0,0-2.988,0l-3.743,1.968a1.21,1.21,0,0,1-1.756-1.276l.715-4.169a3.209,3.209,0,0,0-.923-2.841L21.77,29.989a1.21,1.21,0,0,1,.67-2.063l4.186-.609a3.2,3.2,0,0,0,2.417-1.755l1.873-3.793a1.209,1.209,0,0,1,2.168,0h0l1.872,3.793a3.2,3.2,0,0,0,2.416,1.755l4.187.609a1.21,1.21,0,0,1,.67,2.063Z"></path></svg>