<svg xmlns="http://www.w3.org/2000/svg" id="Gratitude_Feast" viewBox="0 0 64 64" data-name="Gratitude Feast"><path d="m61 18c-2.22 0-4.16 1.21-5.19 3.01-3.22.1-5.81 2.75-5.81 5.99v11.35c-2.06-.38-4.26.13-5.95 1.57l-7.26 6.22c-1.78 1.52-2.79 3.74-2.79 6.07v8.78c0 .55.45 1 1 1s1-.45 1-1v-8.78c0-1.75.76-3.41 2.1-4.56l7.26-6.22c1.73-1.48 4.23-1.61 6.08-.42l-6.09 5.22c-.42.36-.47.99-.11 1.41s.99.47 1.41.11l7-6c.21-.18.34-.44.35-.72s-.09-.55-.29-.75c-.18-.18-.38-.35-.58-.51l2.47-2.12c.89-.76 1.39-1.87 1.39-3.03v-10.62c0-1.86 1.28-3.43 3-3.87v18.68c0 1.74-.75 3.39-2.07 4.53l-12.58 10.91c-.22.19-.35.47-.35.76v6c0 .55.45 1 1 1s1-.45 1-1v-5.54l12.24-10.61c1.75-1.52 2.76-3.72 2.76-6.05v-19.8c0-.55-.45-1-1-1zm-6 16.62c0 .58-.25 1.14-.7 1.52l-2.3 1.98v-11.12c0-1.86 1.28-3.43 3-3.87v11.5z"></path><path d="m27.21 46.15-7.26-6.22c-1.68-1.44-3.89-1.95-5.95-1.57v-11.35c0-3.24-2.59-5.89-5.81-5.99-1.04-1.8-2.97-3.01-5.19-3.01-.55 0-1 .45-1 1v19.8c0 2.32 1.01 4.52 2.76 6.05l12.24 10.61v5.54c0 .55.45 1 1 1s1-.45 1-1v-6c0-.29-.13-.57-.35-.76l-12.58-10.91c-1.32-1.14-2.07-2.79-2.07-4.53v-18.68c1.72.45 3 2.01 3 3.87v10.62c0 1.17.51 2.27 1.39 3.03l2.47 2.13c-.2.16-.39.33-.58.51-.2.2-.3.47-.29.75s.14.54.35.72l7 6c.42.36 1.05.31 1.41-.11s.31-1.05-.11-1.41l-6.09-5.22c1.86-1.19 4.35-1.06 6.08.42l7.26 6.22c1.33 1.14 2.1 2.8 2.1 4.56v8.78c0 .55.45 1 1 1s1-.45 1-1v-8.78c0-2.34-1.02-4.55-2.79-6.07zm-18.21-11.52v-11.5c1.72.45 3 2.01 3 3.87v11.12l-2.3-1.98c-.44-.38-.7-.93-.7-1.52z"></path><path d="m44 22c0-6.62-5.38-12-12-12s-12 5.38-12 12 5.38 12 12 12 12-5.38 12-12zm-12 10c-5.51 0-10-4.49-10-10s4.49-10 10-10 10 4.49 10 10-4.49 10-10 10z"></path><path d="m35.23 24.36c-.89 1.06-2.04 1.64-3.23 1.64s-2.34-.58-3.23-1.64c-.36-.42-.99-.48-1.41-.12s-.48.99-.12 1.41c1.28 1.52 2.97 2.36 4.77 2.36s3.49-.84 4.77-2.36c.36-.42.3-1.05-.12-1.41-.42-.35-1.05-.3-1.41.12z"></path><path d="m29.62 20.03c.43-.34.51-.97.16-1.4-.34-.43-.97-.51-1.4-.16-.46.37-1.3.37-1.76 0-.43-.34-1.06-.27-1.4.16s-.27 1.06.16 1.4c.58.46 1.34.72 2.12.72s1.54-.25 2.12-.72z"></path><path d="m37.38 18.47c-.46.37-1.3.37-1.76 0-.43-.34-1.06-.27-1.4.16s-.27 1.06.16 1.4c.58.46 1.34.72 2.12.72s1.54-.25 2.12-.72c.43-.34.51-.97.16-1.4-.34-.43-.97-.51-1.4-.16z"></path><path d="m32 7c.55 0 1-.45 1-1v-3c0-.55-.45-1-1-1s-1 .45-1 1v3c0 .55.45 1 1 1z"></path><path d="m40 9c.32 0 .64-.16.83-.45l2-3c.31-.46.18-1.08-.28-1.39s-1.08-.18-1.39.28l-2 3c-.31.46-.18 1.08.28 1.39.17.11.36.17.55.17z"></path><path d="m45 14c.19 0 .38-.05.55-.17l3-2c.46-.31.58-.93.28-1.39-.31-.46-.93-.58-1.39-.28l-3 2c-.46.31-.58.93-.28 1.39.19.29.51.45.83.45z"></path><path d="m23.17 8.55c.19.29.51.45.83.45.19 0 .38-.05.55-.17.46-.31.58-.93.28-1.39l-2-3c-.31-.46-.93-.59-1.39-.28s-.58.93-.28 1.39l2 3z"></path><path d="m18.45 13.83c.17.11.36.17.55.17.32 0 .64-.16.83-.45.31-.46.18-1.08-.28-1.39l-3-2c-.46-.31-1.08-.18-1.39.28s-.18 1.08.28 1.39l3 2z"></path></svg>