<svg xmlns="http://www.w3.org/2000/svg" id="Layer_1" height="512" viewBox="0 0 511.889 511.889" width="512"><g><path d="m255.906 432.993c-8.284 0-15 6.716-15 15v48.953c.738 19.881 29.269 19.866 30 0v-48.953c0-8.284-6.715-15-15-15z"></path><path d="m507.478 245.305c-2.717-2.735-6.48-4.43-10.64-4.43h-50.403c-18.132.449-20.463 25.818-2.945 29.707 1.047.231 2.13.362 3.247.362h50.171c13.317.101 19.994-16.481 10.57-25.639z"></path><path d="m255.906 83.147c8.284 0 15-6.716 15-15v-53.204c-.738-19.881-29.269-19.866-30 0v53.204c0 8.284 6.716 15 15 15z"></path><path d="m146.297 97.803c10.378 17.062 35.204 3.141 26.236-14.549l-24.01-43.297c-4.018-7.244-13.148-9.862-20.393-5.844s-9.861 13.147-5.844 20.393z"></path><path d="m39.496 148.318 43.497 26.004c6.991 4.214 16.296 1.996 20.571-5.178 4.251-7.11 1.933-16.32-5.177-20.571l-43.497-26.004c-7.11-4.252-16.32-1.933-20.571 5.178-4.251 7.11-1.934 16.32 5.177 20.571z"></path><path d="m80.308 255.944c0-8.284-6.716-15-15-15h-50.403c-19.881.738-19.866 29.269 0 30h50.403c8.284 0 15-6.716 15-15z"></path><path d="m86.219 337.643-46.302 25.686c-7.245 4.019-9.859 13.149-5.84 20.393 4.04 7.313 13.285 9.822 20.393 5.84l46.302-25.686c7.245-4.019 9.859-13.149 5.84-20.393-4.019-7.245-13.149-9.861-20.393-5.84z"></path><path d="m168.611 410.192c-7.071-4.312-16.303-2.074-20.616 5l-25.397 41.658c-9.69 17.331 14.563 32.222 25.615 15.616l25.397-41.658c4.313-7.073 2.075-16.303-4.999-20.616z"></path><path d="m383.612 34.044c-7.246-4.018-16.375-1.401-20.393 5.844l-24.01 43.297c-4.018 7.245-1.401 16.375 5.844 20.393 7.108 3.98 16.354 1.47 20.393-5.844l24.01-43.297c4.017-7.245 1.401-16.376-5.844-20.393z"></path><path d="m421.068 176.381c2.619 0 5.272-.687 7.683-2.128l43.496-26.004c7.11-4.251 9.428-13.461 5.177-20.572s-13.461-9.428-20.572-5.177l-43.496 26.004c-7.11 4.251-9.428 13.461-5.177 20.572 2.81 4.699 7.785 7.305 12.889 7.305z"></path><path d="m471.826 363.259-46.302-25.686c-7.243-4.02-16.374-1.404-20.393 5.84s-1.404 16.375 5.84 20.393l46.302 25.686c7.107 3.983 16.353 1.472 20.393-5.84 4.02-7.244 1.405-16.374-5.84-20.393z"></path><path d="m363.748 415.123c-4.312-7.074-13.544-9.312-20.616-5-7.074 4.312-9.312 13.542-5 20.616l25.397 41.658c4.339 7.136 13.656 9.273 20.616 5 7.074-4.312 9.312-13.542 5-20.616z"></path><path d="m317.336 145.735c-21.179 0-40.028 9.963-52.108 25.452-4.835 6.2-14.12 6.2-18.955 0-12.081-15.49-30.929-25.452-52.108-25.452-38.276-.102-65.837 32.53-65.837 70.936h-.011c0 78.86 89.546 137.464 118.537 154.372 5.61 3.271 12.52 3.317 18.176.127 29.322-16.538 118.33-74.454 118.33-159.481 0-36.426-29.56-65.954-66.024-65.954z"></path></g></svg>