<svg xmlns="http://www.w3.org/2000/svg" id="Layer_1" data-name="Layer 1" viewBox="0 0 64 64"><path d="M32,11.717A20.283,20.283,0,1,0,52.284,32,20.306,20.306,0,0,0,32,11.717Zm11.625,19.7L40.6,34.373a1.214,1.214,0,0,0-.347,1.071l.715,4.169A3.206,3.206,0,0,1,36.308,43l-3.745-1.97a1.21,1.21,0,0,0-1.125,0L27.693,43a3.209,3.209,0,0,1-4.657-3.384l.715-4.169a1.212,1.212,0,0,0-.348-1.071l-3.028-2.952a3.208,3.208,0,0,1,1.778-5.474l4.186-.608a1.213,1.213,0,0,0,.911-.662l1.872-3.793a3.209,3.209,0,0,1,5.756,0l1.872,3.793a1.213,1.213,0,0,0,.911.662l4.187.608a3.208,3.208,0,0,1,1.777,5.474Z"></path><path d="M22.289,52.052A22.428,22.428,0,0,1,11.947,41.711,7.322,7.322,0,0,0,22.289,52.052Z"></path><path d="M41.56,27.926l-4.187-.609a3.2,3.2,0,0,1-2.416-1.755l-1.872-3.793h0a1.209,1.209,0,0,0-2.168,0l-1.873,3.793a3.2,3.2,0,0,1-2.417,1.755l-4.186.609a1.21,1.21,0,0,0-.67,2.063L24.8,32.941a3.209,3.209,0,0,1,.923,2.841l-.715,4.169a1.21,1.21,0,0,0,1.756,1.276l3.743-1.968a3.209,3.209,0,0,1,2.988,0l3.744,1.969a1.21,1.21,0,0,0,1.755-1.277l-.715-4.169a3.211,3.211,0,0,1,.922-2.841l3.03-2.952a1.21,1.21,0,0,0-.67-2.063Z"></path><path d="M39.313,53.044a22.2,22.2,0,0,1-14.626,0,7.322,7.322,0,0,0,14.626,0Z"></path><path d="M41.711,52.053A7.323,7.323,0,0,0,52.053,41.71,22.432,22.432,0,0,1,41.711,52.053Z"></path><path d="M11.947,22.29A22.421,22.421,0,0,1,22.289,11.948,7.322,7.322,0,0,0,11.947,22.29Z"></path><path d="M10.955,39.313a22.2,22.2,0,0,1,0-14.626,7.322,7.322,0,0,0,0,14.626Z"></path><path d="M53.045,24.687a22.2,22.2,0,0,1,0,14.626,7.322,7.322,0,0,0,0-14.626Z"></path><path d="M24.687,10.956a22.2,22.2,0,0,1,14.626,0,7.322,7.322,0,0,0-14.626,0Z"></path><path d="M51.8,12.2a7.336,7.336,0,0,0-10.088-.254A22.432,22.432,0,0,1,52.053,22.29,7.335,7.335,0,0,0,51.8,12.2Z"></path></svg>