<svg xmlns="http://www.w3.org/2000/svg" viewBox="0 0 64 64"><g id="Layer_2" data-name="Layer 2"><path d="m18.71 38.8a16.928 16.928 0 0 1 3.04 8.09l.44 4.66a.863.863 0 0 1 -.02.28l-.98 5.2 10.03 2.97h4.28l1.02-7.43a1 1 0 0 1 .99-.86h5.99a2.545 2.545 0 0 0 2.54-2.55v-4.62a3.286 3.286 0 0 1 1.73-2.89l2.27-1.22a1.121 1.121 0 0 0 .59-.99 1.108 1.108 0 0 0 -.37-.83l-1.28-1.15a8.99 8.99 0 0 1 -2.94-6.63 15.179 15.179 0 0 0 -13.29-15.33 14.955 14.955 0 0 0 -14.04 23.3zm2.69-12.4a1.019 1.019 0 0 1 .84-.84 8.308 8.308 0 0 1 5.38 1.12 8.141 8.141 0 0 1 2.99-4.49 1 1 0 0 1 1.19 0 8.224 8.224 0 0 1 2.97 4.5 8.174 8.174 0 0 1 5.39-1.13 1.019 1.019 0 0 1 .84.85 8.667 8.667 0 0 1 -2.61 7.27 8.814 8.814 0 0 1 -6.16 2.66 5.792 5.792 0 0 1 -.72-.04h-.01a1.428 1.428 0 0 1 -.29-.03h-.04a1.153 1.153 0 0 1 -.26.03 6.132 6.132 0 0 1 -.74.05 8.817 8.817 0 0 1 -6.17-2.68 8.609 8.609 0 0 1 -2.6-7.27z"></path><path d="m28.74 34.16a9.071 9.071 0 0 1 -1.45-4.99c0-.1 0-.21.01-.31a6.647 6.647 0 0 0 -3.94-1.38h-.04a6.815 6.815 0 0 0 2.09 4.78 6.988 6.988 0 0 0 3.33 1.9z"></path><path d="m39.07 27.48h-.02a6.627 6.627 0 0 0 -3.96 1.39c.01.1.01.2.01.3a9.129 9.129 0 0 1 -1.45 5 7.139 7.139 0 0 0 3.33-1.91 6.78 6.78 0 0 0 2.09-4.78z"></path><path d="m33.1 29.17a6.847 6.847 0 0 0 -1.9-4.86 7.138 7.138 0 0 0 0 9.72 6.847 6.847 0 0 0 1.9-4.86z"></path><path d="m44.166 15.413a1 1 0 0 0 .765-.354l5.469-6.473a1 1 0 0 0 -1.526-1.286l-5.474 6.468a1 1 0 0 0 .763 1.645z"></path><path d="m17.075 15.059a1 1 0 0 0 1.525-1.291l-5.468-6.468a1 1 0 0 0 -1.532 1.286z"></path><path d="m29.345 10.176a1 1 0 0 0 1-1v-6.176a1 1 0 0 0 -2 0v6.176a1 1 0 0 0 1 1z"></path></g></svg>