<svg xmlns="http://www.w3.org/2000/svg" id="solid" viewBox="0 0 32 32"><path d="m26.688 3.7654v8.448c-1.4187-.6507-2.9867-1.0133-4.64-1.0133-6.1654 0-11.2 5.024-11.2 11.2 0 3.7013 1.8133 6.9973 4.5973 9.0346-.2347.0747-.48.1493-.7254.224l-1.2053.3413-1.184-.3413c-7.0933-2.0267-11.9786-8.512-11.9786-15.8933v-12l13.1627-3.7654z"></path><path d="m22.048 12.8c-5.3014 0-9.6 4.2987-9.6 9.6s4.2986 9.6 9.6 9.6c5.312 0 9.6-4.2987 9.6-9.6s-4.288-9.6-9.6-9.6zm4.32 7.488-5.1307 5.3333c-.1493.16-.3627.2453-.576.2453-.224 0-.4266-.0854-.576-.2453l-2.3467-2.432c-.2986-.32-.288-.8214.0214-1.1307.32-.3093.832-.2986 1.1413.0214l1.76 1.8346 4.544-4.736c.3094-.32.8214-.3307 1.1307-.0213.32.3093.3307.8106.032 1.1307z"></path></svg>