<svg xmlns="http://www.w3.org/2000/svg" id="&#x421;&#x43B;&#x43E;&#x439;_1" height="512" viewBox="0 0 512 512" width="512"><g fill="rgb(0,0,0)"><path d="m393.773 11.092c-37.968-7.153-86.896-11.092-137.773-11.092s-99.805 3.939-137.773 11.092c-56.942 10.727-63.528 23.782-63.528 32.669v147.594c0 39.186 7.603 77.41 22.599 113.613 14.995 36.203 36.648 68.608 64.357 96.317 0 0 108.15 108.15 108.153 108.153 1.626 1.626 3.897 2.565 6.197 2.562 2.288-.003 4.567-.942 6.186-2.562l108.154-108.153c27.709-27.708 49.362-60.114 64.357-96.317 14.996-36.203 22.599-74.428 22.599-113.613v-147.594c0-8.887-6.586-21.942-63.528-32.669zm-137.773 299.612c-50.673 0-91.898-41.225-91.898-91.898s41.225-91.898 91.898-91.898 91.898 41.225 91.898 91.898-41.225 91.898-91.898 91.898zm-183.796-119.349v-146.708c2.434-2.891 16.088-10.689 55.791-17.53 33.721-5.81 75.771-9.173 119.253-9.573v92.208c-56.248 4.474-100.65 51.673-100.65 109.052s44.402 104.58 100.65 109.054v154.265l-93.216-93.216c-52.768-52.768-81.828-122.927-81.828-197.552zm285.764 197.552-93.216 93.216v-154.265c56.248-4.474 100.65-51.673 100.65-109.052s-44.402-104.579-100.65-109.053v-92.208c43.483.399 85.532 3.763 119.253 9.573 39.703 6.841 53.357 14.639 55.791 17.53v146.708c.001 74.624-29.06 144.783-81.828 197.551z"></path><path d="m302.325 190.736-46.325 46.325-46.325-46.324c-3.418-3.418-8.96-3.418-12.377 0-3.418 3.418-3.418 8.96 0 12.377l52.513 52.513c1.709 1.709 3.949 2.564 6.189 2.564s4.48-.854 6.189-2.564l52.513-52.513c3.418-3.418 3.418-8.96 0-12.377-3.418-3.419-8.959-3.419-12.377-.001z"></path></g></svg>