<svg xmlns="http://www.w3.org/2000/svg" id="Layer_1" data-name="Layer 1" viewBox="0 0 64 64"><path d="M14.1,30.383a16.82,16.82,0,0,0,2.953,9.544,15.077,15.077,0,0,1,2.705,7.148l.421,4.525-1.121,5.95a1,1,0,0,0,.7,1.144l11.028,3.265a1.021,1.021,0,0,0,.284.041h5.294a1,1,0,0,0,.99-.863l1.029-7.431H43.5a4.548,4.548,0,0,0,4.548-4.548V44.541a1.283,1.283,0,0,1,.674-1.13l2.273-1.224a3.117,3.117,0,0,0,.613-5.059l-1.279-1.156a6.935,6.935,0,0,1-2.281-5.138A17.168,17.168,0,0,0,32.966,13.516,16.974,16.974,0,0,0,14.1,30.383Zm6.975-11.145A14.869,14.869,0,0,1,32.751,15.5a15.173,15.173,0,0,1,13.293,15.33,8.941,8.941,0,0,0,2.939,6.622l1.281,1.156a1.118,1.118,0,0,1-.22,1.814L47.77,41.65a3.28,3.28,0,0,0-1.726,2.891v4.617A2.548,2.548,0,0,1,43.5,51.706H37.515a1,1,0,0,0-.991.863L35.5,60H31.218L21.194,57.033l.98-5.2a1.082,1.082,0,0,0,.014-.278l-.434-4.665A17.051,17.051,0,0,0,18.707,38.8a14.832,14.832,0,0,1-2.6-8.414A15,15,0,0,1,21.079,19.238Z"></path><path d="M30.175,36.345c.239,0,.477-.026.716-.049a.992.992,0,0,0,.625,0c.236.022.473.05.711.05a8.827,8.827,0,0,0,6.163-2.67A8.643,8.643,0,0,0,41,26.406a1,1,0,0,0-.839-.846,8.181,8.181,0,0,0-5.394,1.131,8.268,8.268,0,0,0-2.964-4.5,1,1,0,0,0-1.19,0,8.185,8.185,0,0,0-2.981,4.5,8.257,8.257,0,0,0-5.387-1.13,1,1,0,0,0-.838.84A8.625,8.625,0,0,0,24,33.673,8.842,8.842,0,0,0,30.175,36.345Zm8.871-8.868h.028a6.82,6.82,0,0,1-2.1,4.782,7.15,7.15,0,0,1-3.341,1.914,9.1,9.1,0,0,0,1.467-5c0-.091-.012-.179-.014-.27A6.642,6.642,0,0,1,39.046,27.477ZM31.2,24.307a7.154,7.154,0,0,1,0,9.726,7.149,7.149,0,0,1,0-9.726Zm-7.842,3.17A6.634,6.634,0,0,1,27.3,28.9c0,.092-.015.182-.015.274a9.083,9.083,0,0,0,1.464,5,7.156,7.156,0,0,1-3.341-1.914,6.822,6.822,0,0,1-2.09-4.782Z"></path><path d="M44.166,15.413a1,1,0,0,0,.765-.354L50.4,8.586A1,1,0,0,0,48.874,7.3L43.4,13.768a1,1,0,0,0,.763,1.645Z"></path><path d="M17.075,15.059A1,1,0,0,0,18.6,13.768L13.132,7.3A1,1,0,0,0,11.6,8.586Z"></path><path d="M29.345,10.176a1,1,0,0,0,1-1V3a1,1,0,0,0-2,0V9.176A1,1,0,0,0,29.345,10.176Z"></path></svg>